<mxfile host="65bd71144e">
    <diagram id="zmvTfOeDoV14OiVB67Ex" name="Page-1">
        <mxGraphModel dx="840" dy="450" grid="1" gridSize="10" guides="1" tooltips="1" connect="1" arrows="1" fold="1" page="1" pageScale="1" pageWidth="850" pageHeight="1100" math="0" shadow="0">
            <root>
                <mxCell id="0"/>
                <mxCell id="1" parent="0"/>
                <mxCell id="151" value="" style="rounded=0;whiteSpace=wrap;html=1;" vertex="1" parent="1">
                    <mxGeometry x="235.26" y="1006" width="129.12" height="40" as="geometry"/>
                </mxCell>
                <mxCell id="31" value="" style="shape=internalStorage;whiteSpace=wrap;html=1;backgroundOutline=1;dx=30;dy=30;" parent="1" vertex="1">
                    <mxGeometry x="80" y="720" width="240" height="160" as="geometry"/>
                </mxCell>
                <mxCell id="64" value="" style="rounded=0;whiteSpace=wrap;html=1;strokeColor=default;fontSize=12;" parent="1" vertex="1">
                    <mxGeometry x="136" y="774" width="163.75" height="80" as="geometry"/>
                </mxCell>
                <mxCell id="4" value="" style="shape=internalStorage;whiteSpace=wrap;html=1;backgroundOutline=1;dx=30;dy=30;" parent="1" vertex="1">
                    <mxGeometry x="79.25" y="400" width="240" height="160" as="geometry"/>
                </mxCell>
                <mxCell id="5" value="" style="shape=internalStorage;whiteSpace=wrap;html=1;backgroundOutline=1;dx=30;dy=30;" parent="1" vertex="1">
                    <mxGeometry x="519" y="80" width="240" height="160" as="geometry"/>
                </mxCell>
                <mxCell id="7" value="" style="rounded=0;whiteSpace=wrap;html=1;" parent="1" vertex="1">
                    <mxGeometry x="80" y="80" width="240" height="160" as="geometry"/>
                </mxCell>
                <mxCell id="8" value="login/sign in" style="text;html=1;strokeColor=none;fillColor=none;align=center;verticalAlign=middle;whiteSpace=wrap;rounded=0;" parent="1" vertex="1">
                    <mxGeometry x="72.25" y="40" width="75" height="30" as="geometry"/>
                </mxCell>
                <mxCell id="10" value="home" style="text;html=1;strokeColor=none;fillColor=none;align=center;verticalAlign=middle;whiteSpace=wrap;rounded=0;" parent="1" vertex="1">
                    <mxGeometry x="534" y="40" width="60" height="30" as="geometry"/>
                </mxCell>
                <mxCell id="22" value="&lt;font style=&quot;font-size: 10px;&quot;&gt;ユーザ名&lt;/font&gt;" style="text;html=1;strokeColor=default;fillColor=none;align=center;verticalAlign=middle;whiteSpace=wrap;rounded=0;" parent="1" vertex="1">
                    <mxGeometry x="709" y="85" width="43" height="20" as="geometry"/>
                </mxCell>
                <mxCell id="23" value="&lt;font style=&quot;font-size: 12px;&quot;&gt;app名&lt;/font&gt;" style="text;html=1;strokeColor=none;fillColor=none;align=center;verticalAlign=middle;whiteSpace=wrap;rounded=0;fontSize=10;" parent="1" vertex="1">
                    <mxGeometry x="520" y="80" width="40" height="30" as="geometry"/>
                </mxCell>
                <mxCell id="26" value="book(word)" style="text;html=1;strokeColor=none;fillColor=none;align=center;verticalAlign=middle;whiteSpace=wrap;rounded=0;" parent="1" vertex="1">
                    <mxGeometry x="94.25" y="360" width="60" height="30" as="geometry"/>
                </mxCell>
                <mxCell id="28" value="" style="rounded=0;whiteSpace=wrap;html=1;strokeColor=default;fontSize=12;" parent="1" vertex="1">
                    <mxGeometry x="132.25" y="453" width="163.75" height="80" as="geometry"/>
                </mxCell>
                <mxCell id="29" value="&lt;font style=&quot;font-size: 33px;&quot;&gt;word&lt;/font&gt;" style="text;html=1;strokeColor=none;fillColor=none;align=center;verticalAlign=middle;whiteSpace=wrap;rounded=0;fontSize=12;" parent="1" vertex="1">
                    <mxGeometry x="171.38" y="467.5" width="85.5" height="51" as="geometry"/>
                </mxCell>
                <mxCell id="30" value="&lt;font style=&quot;font-size: 10px;&quot;&gt;ユーザ名&lt;/font&gt;" style="text;html=1;strokeColor=default;fillColor=none;align=center;verticalAlign=middle;whiteSpace=wrap;rounded=0;" parent="1" vertex="1">
                    <mxGeometry x="269.25" y="404" width="43" height="20" as="geometry"/>
                </mxCell>
                <mxCell id="33" value="&lt;font style=&quot;font-size: 33px;&quot;&gt;翻訳文&lt;/font&gt;" style="text;html=1;strokeColor=none;fillColor=none;align=center;verticalAlign=middle;whiteSpace=wrap;rounded=0;fontSize=12;" parent="1" vertex="1">
                    <mxGeometry x="161.5" y="788.5" width="112.75" height="51" as="geometry"/>
                </mxCell>
                <mxCell id="34" value="&lt;font style=&quot;font-size: 10px;&quot;&gt;ユーザ名&lt;/font&gt;" style="text;html=1;strokeColor=default;fillColor=none;align=center;verticalAlign=middle;whiteSpace=wrap;rounded=0;" parent="1" vertex="1">
                    <mxGeometry x="270" y="724" width="43" height="20" as="geometry"/>
                </mxCell>
                <mxCell id="35" value="" style="rounded=0;whiteSpace=wrap;html=1;strokeColor=default;fontSize=33;" parent="1" vertex="1">
                    <mxGeometry x="140" y="153" width="120" height="10" as="geometry"/>
                </mxCell>
                <mxCell id="37" value="" style="rounded=0;whiteSpace=wrap;html=1;strokeColor=default;fontSize=33;" parent="1" vertex="1">
                    <mxGeometry x="140" y="178" width="120" height="10" as="geometry"/>
                </mxCell>
                <mxCell id="40" value="&lt;font style=&quot;font-size: 8px;&quot;&gt;user name&lt;/font&gt;" style="text;html=1;strokeColor=none;fillColor=none;align=center;verticalAlign=middle;whiteSpace=wrap;rounded=0;fontSize=12;" parent="1" vertex="1">
                    <mxGeometry x="139" y="140" width="47" height="10" as="geometry"/>
                </mxCell>
                <mxCell id="41" value="&lt;span style=&quot;font-size: 8px;&quot;&gt;password&lt;/span&gt;" style="text;html=1;strokeColor=none;fillColor=none;align=center;verticalAlign=middle;whiteSpace=wrap;rounded=0;fontSize=12;" parent="1" vertex="1">
                    <mxGeometry x="139" y="166" width="47" height="10" as="geometry"/>
                </mxCell>
                <mxCell id="43" value="login" style="text;html=1;strokeColor=default;fillColor=none;align=center;verticalAlign=middle;whiteSpace=wrap;rounded=0;fontSize=8;gradientColor=none;" parent="1" vertex="1">
                    <mxGeometry x="210" y="200" width="30" height="10" as="geometry"/>
                </mxCell>
                <mxCell id="44" value="sign in" style="text;html=1;strokeColor=default;fillColor=none;align=center;verticalAlign=middle;whiteSpace=wrap;rounded=0;fontSize=8;gradientColor=none;" parent="1" vertex="1">
                    <mxGeometry x="160" y="200" width="30" height="10" as="geometry"/>
                </mxCell>
                <mxCell id="46" value="&lt;font style=&quot;font-size: 30px;&quot;&gt;app名&lt;/font&gt;" style="text;html=1;strokeColor=none;fillColor=none;align=center;verticalAlign=middle;whiteSpace=wrap;rounded=0;fontSize=8;" parent="1" vertex="1">
                    <mxGeometry x="147.5" y="100" width="105" height="30" as="geometry"/>
                </mxCell>
                <mxCell id="47" value="&lt;font style=&quot;font-size: 12px;&quot;&gt;book名&lt;/font&gt;" style="text;html=1;strokeColor=none;fillColor=none;align=center;verticalAlign=middle;whiteSpace=wrap;rounded=0;fontSize=10;" parent="1" vertex="1">
                    <mxGeometry x="126" y="400" width="60" height="30" as="geometry"/>
                </mxCell>
                <mxCell id="48" value="&lt;font style=&quot;font-size: 12px;&quot;&gt;book名&lt;/font&gt;" style="text;html=1;strokeColor=none;fillColor=none;align=center;verticalAlign=middle;whiteSpace=wrap;rounded=0;fontSize=10;" parent="1" vertex="1">
                    <mxGeometry x="132.5" y="720" width="60" height="30" as="geometry"/>
                </mxCell>
                <mxCell id="50" value="&lt;font size=&quot;1&quot;&gt;book&lt;br&gt;book&lt;br&gt;book&lt;br&gt;&lt;div style=&quot;text-align: left;&quot;&gt;.&lt;/div&gt;&lt;div style=&quot;text-align: left;&quot;&gt;.&lt;/div&gt;&lt;div style=&quot;text-align: left;&quot;&gt;.&lt;/div&gt;&lt;/font&gt;" style="rounded=0;whiteSpace=wrap;html=1;strokeColor=none;fillColor=none;" parent="1" vertex="1">
                    <mxGeometry x="519" y="115" width="30" height="75" as="geometry"/>
                </mxCell>
                <mxCell id="51" value="&lt;font style=&quot;font-size: 7px;&quot;&gt;home&lt;/font&gt;" style="rounded=0;whiteSpace=wrap;html=1;spacingTop=-3;" parent="1" vertex="1">
                    <mxGeometry x="521.5" y="224" width="25" height="10" as="geometry"/>
                </mxCell>
                <mxCell id="52" value="&lt;span style=&quot;font-size: 10px;&quot;&gt;復習する&lt;/span&gt;" style="text;html=1;strokeColor=default;fillColor=none;align=center;verticalAlign=middle;whiteSpace=wrap;rounded=0;" parent="1" vertex="1">
                    <mxGeometry x="592.5" y="160" width="126.5" height="20" as="geometry"/>
                </mxCell>
                <mxCell id="53" value="&lt;font style=&quot;font-size: 12px;&quot;&gt;app名&lt;/font&gt;" style="text;html=1;strokeColor=none;fillColor=none;align=center;verticalAlign=middle;whiteSpace=wrap;rounded=0;fontSize=10;" parent="1" vertex="1">
                    <mxGeometry x="80.25" y="720" width="40" height="30" as="geometry"/>
                </mxCell>
                <mxCell id="54" value="&lt;font size=&quot;1&quot;&gt;book&lt;br&gt;book&lt;br&gt;book&lt;br&gt;&lt;div style=&quot;text-align: left;&quot;&gt;.&lt;/div&gt;&lt;div style=&quot;text-align: left;&quot;&gt;.&lt;/div&gt;&lt;div style=&quot;text-align: left;&quot;&gt;.&lt;/div&gt;&lt;/font&gt;" style="rounded=0;whiteSpace=wrap;html=1;strokeColor=none;fillColor=none;" parent="1" vertex="1">
                    <mxGeometry x="80.25" y="755" width="30" height="75" as="geometry"/>
                </mxCell>
                <mxCell id="55" value="&lt;font style=&quot;font-size: 7px;&quot;&gt;home&lt;/font&gt;" style="rounded=0;whiteSpace=wrap;html=1;spacingTop=-3;" parent="1" vertex="1">
                    <mxGeometry x="81.75" y="864" width="25" height="10" as="geometry"/>
                </mxCell>
                <mxCell id="56" value="book(翻訳文)" style="text;html=1;strokeColor=none;fillColor=none;align=center;verticalAlign=middle;whiteSpace=wrap;rounded=0;" parent="1" vertex="1">
                    <mxGeometry x="79.75" y="690" width="90.25" height="30" as="geometry"/>
                </mxCell>
                <mxCell id="57" value="&lt;font style=&quot;font-size: 12px;&quot;&gt;app名&lt;/font&gt;" style="text;html=1;strokeColor=none;fillColor=none;align=center;verticalAlign=middle;whiteSpace=wrap;rounded=0;fontSize=10;" parent="1" vertex="1">
                    <mxGeometry x="79.75" y="400" width="40" height="30" as="geometry"/>
                </mxCell>
                <mxCell id="58" value="&lt;font size=&quot;1&quot;&gt;book&lt;br&gt;book&lt;br&gt;book&lt;br&gt;&lt;div style=&quot;text-align: left;&quot;&gt;.&lt;/div&gt;&lt;div style=&quot;text-align: left;&quot;&gt;.&lt;/div&gt;&lt;div style=&quot;text-align: left;&quot;&gt;.&lt;/div&gt;&lt;/font&gt;" style="rounded=0;whiteSpace=wrap;html=1;strokeColor=none;fillColor=none;" parent="1" vertex="1">
                    <mxGeometry x="79.75" y="435" width="30" height="75" as="geometry"/>
                </mxCell>
                <mxCell id="59" value="&lt;font style=&quot;font-size: 7px;&quot;&gt;home&lt;/font&gt;" style="rounded=0;whiteSpace=wrap;html=1;spacingTop=-3;" parent="1" vertex="1">
                    <mxGeometry x="81.25" y="544" width="25" height="10" as="geometry"/>
                </mxCell>
                <mxCell id="63" value="&lt;font style=&quot;font-size: 7px;&quot;&gt;編集&lt;/font&gt;" style="rounded=0;whiteSpace=wrap;html=1;spacingTop=-3;" parent="1" vertex="1">
                    <mxGeometry x="295" y="755" width="20" height="10" as="geometry"/>
                </mxCell>
                <mxCell id="65" value="&lt;font style=&quot;font-size: 10px;&quot;&gt;つぎへ&lt;/font&gt;" style="text;html=1;strokeColor=default;fillColor=none;align=center;verticalAlign=middle;whiteSpace=wrap;rounded=0;" parent="1" vertex="1">
                    <mxGeometry x="175.44" y="860" width="77.37" height="14" as="geometry"/>
                </mxCell>
                <mxCell id="66" value="&lt;font style=&quot;font-size: 10px;&quot;&gt;つぎへ&lt;/font&gt;" style="text;html=1;strokeColor=default;fillColor=none;align=center;verticalAlign=middle;whiteSpace=wrap;rounded=0;" parent="1" vertex="1">
                    <mxGeometry x="175.44" y="540" width="77.37" height="14" as="geometry"/>
                </mxCell>
                <mxCell id="69" value="" style="shape=internalStorage;whiteSpace=wrap;html=1;backgroundOutline=1;dx=30;dy=30;" parent="1" vertex="1">
                    <mxGeometry x="519" y="400" width="240" height="160" as="geometry"/>
                </mxCell>
                <mxCell id="70" value="list" style="text;html=1;strokeColor=none;fillColor=none;align=center;verticalAlign=middle;whiteSpace=wrap;rounded=0;" parent="1" vertex="1">
                    <mxGeometry x="534" y="360" width="60" height="30" as="geometry"/>
                </mxCell>
                <mxCell id="71" value="" style="rounded=0;whiteSpace=wrap;html=1;strokeColor=default;fontSize=12;" parent="1" vertex="1">
                    <mxGeometry x="572" y="453" width="163.75" height="80" as="geometry"/>
                </mxCell>
                <mxCell id="73" value="&lt;font style=&quot;font-size: 10px;&quot;&gt;ユーザ名&lt;/font&gt;" style="text;html=1;strokeColor=default;fillColor=none;align=center;verticalAlign=middle;whiteSpace=wrap;rounded=0;" parent="1" vertex="1">
                    <mxGeometry x="709" y="404" width="43" height="20" as="geometry"/>
                </mxCell>
                <mxCell id="74" value="&lt;font style=&quot;font-size: 12px;&quot;&gt;book名&lt;/font&gt;" style="text;html=1;strokeColor=none;fillColor=none;align=center;verticalAlign=middle;whiteSpace=wrap;rounded=0;fontSize=10;" parent="1" vertex="1">
                    <mxGeometry x="565.75" y="400" width="60" height="30" as="geometry"/>
                </mxCell>
                <mxCell id="75" value="&lt;font style=&quot;font-size: 12px;&quot;&gt;app名&lt;/font&gt;" style="text;html=1;strokeColor=none;fillColor=none;align=center;verticalAlign=middle;whiteSpace=wrap;rounded=0;fontSize=10;" parent="1" vertex="1">
                    <mxGeometry x="519.5" y="400" width="40" height="30" as="geometry"/>
                </mxCell>
                <mxCell id="76" value="&lt;font size=&quot;1&quot;&gt;book&lt;br&gt;book&lt;br&gt;book&lt;br&gt;&lt;div style=&quot;text-align: left;&quot;&gt;.&lt;/div&gt;&lt;div style=&quot;text-align: left;&quot;&gt;.&lt;/div&gt;&lt;div style=&quot;text-align: left;&quot;&gt;.&lt;/div&gt;&lt;/font&gt;" style="rounded=0;whiteSpace=wrap;html=1;strokeColor=none;fillColor=none;" parent="1" vertex="1">
                    <mxGeometry x="519.5" y="435" width="30" height="75" as="geometry"/>
                </mxCell>
                <mxCell id="77" value="&lt;font style=&quot;font-size: 7px;&quot;&gt;home&lt;/font&gt;" style="rounded=0;whiteSpace=wrap;html=1;spacingTop=-3;" parent="1" vertex="1">
                    <mxGeometry x="521" y="544" width="25" height="10" as="geometry"/>
                </mxCell>
                <mxCell id="80" value="&lt;span style=&quot;font-size: 10px;&quot;&gt;戻る&lt;/span&gt;" style="text;html=1;strokeColor=default;fillColor=none;align=center;verticalAlign=middle;whiteSpace=wrap;rounded=0;" parent="1" vertex="1">
                    <mxGeometry x="600.88" y="540" width="50" height="14" as="geometry"/>
                </mxCell>
                <mxCell id="81" value="&lt;span style=&quot;font-size: 10px;&quot;&gt;完了&lt;/span&gt;" style="text;html=1;strokeColor=default;fillColor=none;align=center;verticalAlign=middle;whiteSpace=wrap;rounded=0;" parent="1" vertex="1">
                    <mxGeometry x="656.88" y="540" width="50" height="14" as="geometry"/>
                </mxCell>
                <mxCell id="82" value="word&amp;nbsp; &amp;nbsp; 翻訳文.......&lt;br&gt;word&amp;nbsp; &amp;nbsp; 翻訳文.......&lt;br&gt;word&amp;nbsp; &amp;nbsp; 翻訳文.......&lt;br&gt;.&lt;br&gt;.&lt;br&gt;." style="rounded=0;whiteSpace=wrap;html=1;fontSize=7;fillColor=none;align=left;strokeColor=none;horizontal=1;verticalAlign=top;spacingLeft=7;spacingTop=-2;" parent="1" vertex="1">
                    <mxGeometry x="580" y="458" width="150" height="70" as="geometry"/>
                </mxCell>
                <mxCell id="83" value="" style="rounded=0;whiteSpace=wrap;html=1;fontSize=7;fillColor=none;" parent="1" vertex="1">
                    <mxGeometry x="382.63" y="680" width="201" height="105" as="geometry"/>
                </mxCell>
                <mxCell id="85" value="word" style="rounded=0;whiteSpace=wrap;html=1;fontSize=8;fillColor=none;align=left;spacingLeft=4;" parent="1" vertex="1">
                    <mxGeometry x="395.13" y="697.5" width="176" height="15" as="geometry"/>
                </mxCell>
                <mxCell id="86" value="翻訳文........" style="rounded=0;whiteSpace=wrap;html=1;fontSize=8;fillColor=none;align=left;spacingLeft=5;verticalAlign=top;" parent="1" vertex="1">
                    <mxGeometry x="395.13" y="721" width="176" height="40" as="geometry"/>
                </mxCell>
                <mxCell id="87" value="" style="rounded=0;whiteSpace=wrap;html=1;fontSize=7;fillColor=none;" parent="1" vertex="1">
                    <mxGeometry x="641.5" y="680" width="201" height="105" as="geometry"/>
                </mxCell>
                <mxCell id="90" value="&lt;font style=&quot;font-size: 12px;&quot;&gt;単語を削除します&lt;/font&gt;" style="text;html=1;strokeColor=none;fillColor=none;align=center;verticalAlign=middle;whiteSpace=wrap;rounded=0;fontSize=8;" parent="1" vertex="1">
                    <mxGeometry x="641.5" y="686" width="131.75" height="30" as="geometry"/>
                </mxCell>
                <mxCell id="91" value="&lt;span style=&quot;font-size: 7px;&quot;&gt;削除&lt;/span&gt;" style="rounded=0;whiteSpace=wrap;html=1;spacingTop=-3;" parent="1" vertex="1">
                    <mxGeometry x="732" y="435" width="20" height="10" as="geometry"/>
                </mxCell>
                <mxCell id="92" value="この操作は取り消せません。&lt;br&gt;本当に削除しますか？" style="rounded=0;whiteSpace=wrap;html=1;fontSize=8;fillColor=none;align=left;spacingLeft=5;verticalAlign=top;strokeColor=none;" parent="1" vertex="1">
                    <mxGeometry x="654" y="717.5" width="176" height="30" as="geometry"/>
                </mxCell>
                <mxCell id="93" value="&lt;span style=&quot;font-size: 10px;&quot;&gt;戻る&lt;/span&gt;" style="text;html=1;strokeColor=default;fillColor=none;align=center;verticalAlign=middle;whiteSpace=wrap;rounded=0;" parent="1" vertex="1">
                    <mxGeometry x="692.25" y="761" width="50" height="14" as="geometry"/>
                </mxCell>
                <mxCell id="94" value="&lt;span style=&quot;font-size: 10px;&quot;&gt;削除&lt;/span&gt;" style="text;html=1;strokeColor=default;fillColor=none;align=center;verticalAlign=middle;whiteSpace=wrap;rounded=0;" parent="1" vertex="1">
                    <mxGeometry x="748.25" y="761" width="50" height="14" as="geometry"/>
                </mxCell>
                <mxCell id="96" value="" style="endArrow=classic;startArrow=classic;html=1;fontSize=12;exitX=0.5;exitY=0;exitDx=0;exitDy=0;entryX=0.922;entryY=1.015;entryDx=0;entryDy=0;entryPerimeter=0;" parent="1" source="87" edge="1" target="69">
                    <mxGeometry width="50" height="50" relative="1" as="geometry">
                        <mxPoint x="745" y="650" as="sourcePoint"/>
                        <mxPoint x="740" y="570" as="targetPoint"/>
                    </mxGeometry>
                </mxCell>
                <mxCell id="97" value="" style="endArrow=classic;startArrow=classic;html=1;fontSize=12;exitX=0.5;exitY=0;exitDx=0;exitDy=0;entryX=0.25;entryY=1;entryDx=0;entryDy=0;" parent="1" source="83" target="69" edge="1">
                    <mxGeometry width="50" height="50" relative="1" as="geometry">
                        <mxPoint x="484" y="610" as="sourcePoint"/>
                        <mxPoint x="534" y="560" as="targetPoint"/>
                    </mxGeometry>
                </mxCell>
                <mxCell id="100" value="" style="endArrow=classic;startArrow=classic;html=1;fontSize=12;exitX=0.5;exitY=0;exitDx=0;exitDy=0;entryX=0.5;entryY=1;entryDx=0;entryDy=0;" parent="1" source="31" target="4" edge="1">
                    <mxGeometry width="50" height="50" relative="1" as="geometry">
                        <mxPoint x="147.5" y="610" as="sourcePoint"/>
                        <mxPoint x="198" y="570" as="targetPoint"/>
                    </mxGeometry>
                </mxCell>
                <mxCell id="101" value="" style="endArrow=classic;html=1;fontSize=12;exitX=1;exitY=0.5;exitDx=0;exitDy=0;" parent="1" source="7" edge="1">
                    <mxGeometry width="50" height="50" relative="1" as="geometry">
                        <mxPoint x="469" y="210" as="sourcePoint"/>
                        <mxPoint x="519" y="160" as="targetPoint"/>
                    </mxGeometry>
                </mxCell>
                <mxCell id="102" value="" style="endArrow=classic;startArrow=classic;html=1;fontSize=12;entryX=0;entryY=0.5;entryDx=0;entryDy=0;" parent="1" target="76" edge="1">
                    <mxGeometry width="50" height="50" relative="1" as="geometry">
                        <mxPoint x="320" y="474" as="sourcePoint"/>
                        <mxPoint x="370" y="424" as="targetPoint"/>
                    </mxGeometry>
                </mxCell>
                <mxCell id="103" value="" style="endArrow=classic;html=1;fontSize=12;exitX=0.829;exitY=0.009;exitDx=0;exitDy=0;exitPerimeter=0;entryX=0;entryY=0.75;entryDx=0;entryDy=0;" parent="1" source="31" target="69" edge="1">
                    <mxGeometry width="50" height="50" relative="1" as="geometry">
                        <mxPoint x="390" y="650" as="sourcePoint"/>
                        <mxPoint x="440" y="600" as="targetPoint"/>
                    </mxGeometry>
                </mxCell>
                <mxCell id="104" value="" style="endArrow=classic;html=1;fontSize=12;exitX=0;exitY=0.75;exitDx=0;exitDy=0;" parent="1" source="5" edge="1">
                    <mxGeometry width="50" height="50" relative="1" as="geometry">
                        <mxPoint x="390" y="290" as="sourcePoint"/>
                        <mxPoint x="280" y="400" as="targetPoint"/>
                    </mxGeometry>
                </mxCell>
                <mxCell id="105" value="&lt;span style=&quot;font-size: 10px;&quot;&gt;戻る&lt;/span&gt;" style="text;html=1;strokeColor=default;fillColor=none;align=center;verticalAlign=middle;whiteSpace=wrap;rounded=0;" parent="1" vertex="1">
                    <mxGeometry x="427.63" y="767" width="50" height="14" as="geometry"/>
                </mxCell>
                <mxCell id="106" value="&lt;span style=&quot;font-size: 10px;&quot;&gt;完了&lt;/span&gt;" style="text;html=1;strokeColor=default;fillColor=none;align=center;verticalAlign=middle;whiteSpace=wrap;rounded=0;" parent="1" vertex="1">
                    <mxGeometry x="483.63" y="767" width="50" height="14" as="geometry"/>
                </mxCell>
                <mxCell id="107" value="1" style="ellipse;whiteSpace=wrap;html=1;aspect=fixed;fontSize=12;fillColor=none;" parent="1" vertex="1">
                    <mxGeometry x="125" y="145" width="15" height="15" as="geometry"/>
                </mxCell>
                <mxCell id="108" value="2" style="ellipse;whiteSpace=wrap;html=1;aspect=fixed;fontSize=12;fillColor=none;" parent="1" vertex="1">
                    <mxGeometry x="126" y="168" width="15" height="15" as="geometry"/>
                </mxCell>
                <mxCell id="109" value="3" style="ellipse;whiteSpace=wrap;html=1;aspect=fixed;fontSize=12;fillColor=none;" parent="1" vertex="1">
                    <mxGeometry x="145" y="192" width="15" height="15" as="geometry"/>
                </mxCell>
                <mxCell id="110" value="4" style="ellipse;whiteSpace=wrap;html=1;aspect=fixed;fontSize=12;fillColor=none;" parent="1" vertex="1">
                    <mxGeometry x="195" y="192" width="15" height="15" as="geometry"/>
                </mxCell>
                <mxCell id="111" value="5" style="ellipse;whiteSpace=wrap;html=1;aspect=fixed;fontSize=12;fillColor=none;" parent="1" vertex="1">
                    <mxGeometry x="694" y="80" width="15" height="15" as="geometry"/>
                </mxCell>
                <mxCell id="112" value="6" style="ellipse;whiteSpace=wrap;html=1;aspect=fixed;fontSize=12;fillColor=none;" parent="1" vertex="1">
                    <mxGeometry x="504" y="110" width="15" height="15" as="geometry"/>
                </mxCell>
                <mxCell id="113" value="8" style="ellipse;whiteSpace=wrap;html=1;aspect=fixed;fontSize=12;fillColor=none;" parent="1" vertex="1">
                    <mxGeometry x="577.5" y="152.5" width="15" height="15" as="geometry"/>
                </mxCell>
                <mxCell id="114" value="7" style="ellipse;whiteSpace=wrap;html=1;aspect=fixed;fontSize=12;fillColor=none;" parent="1" vertex="1">
                    <mxGeometry x="526" y="209" width="15" height="15" as="geometry"/>
                </mxCell>
                <mxCell id="116" value="10" style="ellipse;whiteSpace=wrap;html=1;aspect=fixed;fontSize=12;fillColor=none;" parent="1" vertex="1">
                    <mxGeometry x="114.88" y="439" width="18" height="18" as="geometry"/>
                </mxCell>
                <mxCell id="117" value="11" style="ellipse;whiteSpace=wrap;html=1;aspect=fixed;fontSize=12;fillColor=none;" parent="1" vertex="1">
                    <mxGeometry x="157.44" y="532" width="18" height="18" as="geometry"/>
                </mxCell>
                <mxCell id="118" value="14" style="ellipse;whiteSpace=wrap;html=1;aspect=fixed;fontSize=12;fillColor=none;" parent="1" vertex="1">
                    <mxGeometry x="555" y="440" width="18" height="18" as="geometry"/>
                </mxCell>
                <mxCell id="119" value="13" style="ellipse;whiteSpace=wrap;html=1;aspect=fixed;fontSize=12;fillColor=none;" parent="1" vertex="1">
                    <mxGeometry x="714" y="430" width="18" height="18" as="geometry"/>
                </mxCell>
                <mxCell id="120" value="15" style="ellipse;whiteSpace=wrap;html=1;aspect=fixed;fontSize=12;fillColor=none;" parent="1" vertex="1">
                    <mxGeometry x="592.5" y="522" width="18" height="18" as="geometry"/>
                </mxCell>
                <mxCell id="121" value="16" style="ellipse;whiteSpace=wrap;html=1;aspect=fixed;fontSize=12;fillColor=none;" parent="1" vertex="1">
                    <mxGeometry x="646.75" y="522" width="18" height="18" as="geometry"/>
                </mxCell>
                <mxCell id="122" value="12" style="ellipse;whiteSpace=wrap;html=1;aspect=fixed;fontSize=12;fillColor=none;" parent="1" vertex="1">
                    <mxGeometry x="119.75" y="759" width="18" height="18" as="geometry"/>
                </mxCell>
                <mxCell id="123" value="11" style="ellipse;whiteSpace=wrap;html=1;aspect=fixed;fontSize=12;fillColor=none;" parent="1" vertex="1">
                    <mxGeometry x="157.44" y="854" width="18" height="18" as="geometry"/>
                </mxCell>
                <mxCell id="126" value="9" style="ellipse;whiteSpace=wrap;html=1;aspect=fixed;fontSize=12;fillColor=default;" parent="1" vertex="1">
                    <mxGeometry x="282.5" y="741" width="18" height="18" as="geometry"/>
                </mxCell>
                <mxCell id="127" value="18" style="ellipse;whiteSpace=wrap;html=1;aspect=fixed;fontSize=12;fillColor=default;" parent="1" vertex="1">
                    <mxGeometry x="382.63" y="682" width="18" height="18" as="geometry"/>
                </mxCell>
                <mxCell id="128" value="19" style="ellipse;whiteSpace=wrap;html=1;aspect=fixed;fontSize=12;fillColor=default;" parent="1" vertex="1">
                    <mxGeometry x="382.63" y="709.5" width="18" height="18" as="geometry"/>
                </mxCell>
                <mxCell id="129" value="20" style="ellipse;whiteSpace=wrap;html=1;aspect=fixed;fontSize=12;fillColor=default;" parent="1" vertex="1">
                    <mxGeometry x="418.63" y="759" width="18" height="18" as="geometry"/>
                </mxCell>
                <mxCell id="130" value="21" style="ellipse;whiteSpace=wrap;html=1;aspect=fixed;fontSize=12;fillColor=default;" parent="1" vertex="1">
                    <mxGeometry x="477.63" y="759" width="18" height="18" as="geometry"/>
                </mxCell>
                <mxCell id="131" value="22" style="ellipse;whiteSpace=wrap;html=1;aspect=fixed;fontSize=12;fillColor=default;" parent="1" vertex="1">
                    <mxGeometry x="679.13" y="749" width="18" height="18" as="geometry"/>
                </mxCell>
                <mxCell id="134" value="&lt;font style=&quot;font-size: 7px;&quot;&gt;編集&lt;/font&gt;" style="rounded=0;whiteSpace=wrap;html=1;spacingTop=-3;" parent="1" vertex="1">
                    <mxGeometry x="292.25" y="435" width="20" height="10" as="geometry"/>
                </mxCell>
                <mxCell id="136" value="9" style="ellipse;whiteSpace=wrap;html=1;aspect=fixed;fontSize=12;fillColor=default;" parent="1" vertex="1">
                    <mxGeometry x="279.75" y="421" width="18" height="18" as="geometry"/>
                </mxCell>
                <mxCell id="137" value="23" style="ellipse;whiteSpace=wrap;html=1;aspect=fixed;fontSize=12;fillColor=default;" parent="1" vertex="1">
                    <mxGeometry x="743.75" y="749" width="18" height="18" as="geometry"/>
                </mxCell>
                <mxCell id="138" value="" style="rounded=0;whiteSpace=wrap;html=1;fontSize=7;fillColor=none;" parent="1" vertex="1">
                    <mxGeometry x="400.63" y="880" width="201" height="105" as="geometry"/>
                </mxCell>
                <mxCell id="139" value="&lt;font style=&quot;font-size: 12px;&quot;&gt;単語帳を削除します&lt;/font&gt;" style="text;html=1;strokeColor=none;fillColor=none;align=center;verticalAlign=middle;whiteSpace=wrap;rounded=0;fontSize=8;" parent="1" vertex="1">
                    <mxGeometry x="400.63" y="886" width="131.75" height="30" as="geometry"/>
                </mxCell>
                <mxCell id="140" value="この操作は取り消せません。&lt;br&gt;本当に削除しますか？" style="rounded=0;whiteSpace=wrap;html=1;fontSize=8;fillColor=none;align=left;spacingLeft=5;verticalAlign=top;strokeColor=none;" parent="1" vertex="1">
                    <mxGeometry x="413.13" y="917.5" width="176" height="30" as="geometry"/>
                </mxCell>
                <mxCell id="141" value="&lt;span style=&quot;font-size: 10px;&quot;&gt;戻る&lt;/span&gt;" style="text;html=1;strokeColor=default;fillColor=none;align=center;verticalAlign=middle;whiteSpace=wrap;rounded=0;" parent="1" vertex="1">
                    <mxGeometry x="451.38" y="961" width="50" height="14" as="geometry"/>
                </mxCell>
                <mxCell id="142" value="&lt;span style=&quot;font-size: 10px;&quot;&gt;削除&lt;/span&gt;" style="text;html=1;strokeColor=default;fillColor=none;align=center;verticalAlign=middle;whiteSpace=wrap;rounded=0;" parent="1" vertex="1">
                    <mxGeometry x="507.38" y="961" width="50" height="14" as="geometry"/>
                </mxCell>
                <mxCell id="143" value="24" style="ellipse;whiteSpace=wrap;html=1;aspect=fixed;fontSize=12;fillColor=default;" parent="1" vertex="1">
                    <mxGeometry x="438.26" y="949" width="18" height="18" as="geometry"/>
                </mxCell>
                <mxCell id="144" value="25" style="ellipse;whiteSpace=wrap;html=1;aspect=fixed;fontSize=12;fillColor=default;" parent="1" vertex="1">
                    <mxGeometry x="502.88" y="949" width="18" height="18" as="geometry"/>
                </mxCell>
                <mxCell id="147" value="&lt;span style=&quot;font-size: 10px;&quot;&gt;戻る&lt;/span&gt;" style="text;html=1;strokeColor=default;fillColor=none;align=center;verticalAlign=middle;whiteSpace=wrap;rounded=0;" vertex="1" parent="1">
                    <mxGeometry x="244.25" y="1018" width="50" height="14" as="geometry"/>
                </mxCell>
                <mxCell id="148" value="&lt;span style=&quot;font-size: 10px;&quot;&gt;ログアウト&lt;/span&gt;" style="text;html=1;strokeColor=default;fillColor=none;align=center;verticalAlign=middle;whiteSpace=wrap;rounded=0;" vertex="1" parent="1">
                    <mxGeometry x="300.25" y="1018" width="56.5" height="14" as="geometry"/>
                </mxCell>
                <mxCell id="149" value="26" style="ellipse;whiteSpace=wrap;html=1;aspect=fixed;fontSize=12;fillColor=default;" vertex="1" parent="1">
                    <mxGeometry x="231.13" y="1006" width="18" height="18" as="geometry"/>
                </mxCell>
                <mxCell id="150" value="27" style="ellipse;whiteSpace=wrap;html=1;aspect=fixed;fontSize=12;fillColor=default;" vertex="1" parent="1">
                    <mxGeometry x="295.75" y="1006" width="18" height="18" as="geometry"/>
                </mxCell>
                <mxCell id="154" value="&lt;font style=&quot;font-size: 10px;&quot;&gt;ユーザ名&lt;/font&gt;" style="text;html=1;strokeColor=default;fillColor=none;align=center;verticalAlign=middle;whiteSpace=wrap;rounded=0;" vertex="1" parent="1">
                    <mxGeometry x="100.88" y="955" width="43" height="20" as="geometry"/>
                </mxCell>
                <mxCell id="155" value="5" style="ellipse;whiteSpace=wrap;html=1;aspect=fixed;fontSize=12;fillColor=none;" vertex="1" parent="1">
                    <mxGeometry x="85.88" y="950" width="15" height="15" as="geometry"/>
                </mxCell>
                <mxCell id="156" value="" style="endArrow=classic;startArrow=classic;html=1;entryX=0.43;entryY=0.01;entryDx=0;entryDy=0;entryPerimeter=0;" edge="1" parent="1" target="151">
                    <mxGeometry width="50" height="50" relative="1" as="geometry">
                        <mxPoint x="144.38" y="965" as="sourcePoint"/>
                        <mxPoint x="194.38" y="915" as="targetPoint"/>
                        <Array as="points">
                            <mxPoint x="224.38" y="970"/>
                        </Array>
                    </mxGeometry>
                </mxCell>
                <mxCell id="157" value="" style="endArrow=none;html=1;" edge="1" parent="1">
                    <mxGeometry width="50" height="50" relative="1" as="geometry">
                        <mxPoint x="64.38" y="948" as="sourcePoint"/>
                        <mxPoint x="154.38" y="948" as="targetPoint"/>
                    </mxGeometry>
                </mxCell>
                <mxCell id="158" value="" style="endArrow=none;html=1;" edge="1" parent="1">
                    <mxGeometry width="50" height="50" relative="1" as="geometry">
                        <mxPoint x="154.38" y="1028" as="sourcePoint"/>
                        <mxPoint x="154.38" y="948" as="targetPoint"/>
                    </mxGeometry>
                </mxCell>
                <mxCell id="160" value="" style="endArrow=none;html=1;" edge="1" parent="1">
                    <mxGeometry width="50" height="50" relative="1" as="geometry">
                        <mxPoint x="63.88" y="981.5" as="sourcePoint"/>
                        <mxPoint x="153.88" y="981.5" as="targetPoint"/>
                    </mxGeometry>
                </mxCell>
                <mxCell id="162" value="edit" style="text;html=1;strokeColor=none;fillColor=none;align=center;verticalAlign=middle;whiteSpace=wrap;rounded=0;" vertex="1" parent="1">
                    <mxGeometry x="382.63" y="650" width="60" height="30" as="geometry"/>
                </mxCell>
                <mxCell id="163" value="delete(book)" style="text;html=1;strokeColor=none;fillColor=none;align=center;verticalAlign=middle;whiteSpace=wrap;rounded=0;" vertex="1" parent="1">
                    <mxGeometry x="641.5" y="650" width="80.75" height="30" as="geometry"/>
                </mxCell>
                <mxCell id="164" value="logout" style="text;html=1;strokeColor=none;fillColor=none;align=center;verticalAlign=middle;whiteSpace=wrap;rounded=0;" vertex="1" parent="1">
                    <mxGeometry x="304.38" y="975" width="60" height="30" as="geometry"/>
                </mxCell>
                <mxCell id="165" value="delete(word)" style="text;html=1;strokeColor=none;fillColor=none;align=center;verticalAlign=middle;whiteSpace=wrap;rounded=0;" vertex="1" parent="1">
                    <mxGeometry x="400.63" y="850" width="80.75" height="30" as="geometry"/>
                </mxCell>
                <mxCell id="168" value="&lt;span style=&quot;font-size: 7px;&quot;&gt;削除&lt;/span&gt;" style="rounded=0;whiteSpace=wrap;html=1;spacingTop=-3;" vertex="1" parent="1">
                    <mxGeometry x="559" y="683" width="20" height="10" as="geometry"/>
                </mxCell>
                <mxCell id="169" value="17" style="ellipse;whiteSpace=wrap;html=1;aspect=fixed;fontSize=12;fillColor=none;" vertex="1" parent="1">
                    <mxGeometry x="541" y="677" width="18" height="18" as="geometry"/>
                </mxCell>
                <mxCell id="170" value="" style="endArrow=classic;startArrow=classic;html=1;exitX=0.843;exitY=0;exitDx=0;exitDy=0;exitPerimeter=0;" edge="1" parent="1" source="138">
                    <mxGeometry width="50" height="50" relative="1" as="geometry">
                        <mxPoint x="520" y="835" as="sourcePoint"/>
                        <mxPoint x="570" y="785" as="targetPoint"/>
                    </mxGeometry>
                </mxCell>
            </root>
        </mxGraphModel>
    </diagram>
</mxfile>